<svg width="580" height="103" viewBox="0 0 580 103" fill="none" xmlns="http://www.w3.org/2000/svg">
<path d="M576.542 59.4575C572.377 55.2919 565.623 55.2919 561.458 59.4575C557.292 63.6231 557.292 70.3769 561.458 74.5425C565.623 78.7081 572.377 78.7081 576.542 74.5425C580.708 70.3769 580.708 63.6231 576.542 59.4575ZM369 99.5L368.44 101.42L369 99.5ZM237.001 31.0011L238.404 29.5749L237.001 31.0011ZM4.33312e-05 31.001L22.5583 35.9467L15.5622 13.9378L4.33312e-05 31.001ZM568.629 65.0348C567.102 65.3232 565.443 65.6477 563.662 66.0045L564.447 69.9266C566.218 69.572 567.862 69.2504 569.371 68.9652L568.629 65.0348ZM553.686 68.0633C550.564 68.7214 547.224 69.4347 543.698 70.1925L544.539 74.1032C548.061 73.3461 551.396 72.6339 554.511 71.9773L553.686 68.0633ZM533.796 72.3296C530.577 73.0259 527.25 73.7465 523.83 74.4856L524.675 78.3953C528.095 77.6562 531.424 76.9351 534.642 76.2391L533.796 72.3296ZM513.915 76.6232C510.655 77.3238 507.334 78.0344 503.968 78.7504L504.8 82.6629C508.169 81.9462 511.493 81.235 514.755 80.534L513.915 76.6232ZM494.02 80.8524C490.73 81.5425 487.411 82.2331 484.077 82.92L484.884 86.8377C488.223 86.1497 491.547 85.4581 494.841 84.7672L494.02 80.8524ZM474.121 84.9491C470.799 85.6184 467.475 86.2799 464.16 86.9294L464.93 90.8547C468.252 90.2037 471.583 89.5409 474.911 88.8704L474.121 84.9491ZM454.185 88.8521C450.827 89.4878 447.494 90.1067 444.197 90.7041L444.911 94.64C448.218 94.0405 451.562 93.4198 454.929 92.7823L454.185 88.8521ZM434.213 92.4663C430.811 93.0492 427.467 93.6029 424.198 94.1221L424.825 98.0726C428.112 97.5506 431.472 96.9942 434.888 96.4088L434.213 92.4663ZM414.17 95.6368C410.702 96.131 407.35 96.5749 404.136 96.961L404.613 100.932C407.86 100.542 411.241 100.095 414.735 99.5968L414.17 95.6368ZM394.113 98.0115C390.485 98.3273 387.123 98.5383 384.07 98.6313L384.192 102.629C387.336 102.534 390.775 102.317 394.46 101.996L394.113 98.0115ZM374.14 98.3979C372.306 98.2111 370.779 97.9355 369.56 97.58L368.44 101.42C369.965 101.865 371.748 102.175 373.734 102.377L374.14 98.3979ZM369.56 97.58C367.855 97.0826 366.155 96.5732 364.462 96.0525L363.286 99.8758C364.998 100.402 366.716 100.917 368.44 101.42L369.56 97.58ZM354.33 92.7795C350.951 91.6357 347.602 90.4505 344.29 89.2294L342.907 92.9825C346.252 94.2156 349.634 95.4128 353.048 96.5684L354.33 92.7795ZM334.346 85.4157C331.018 84.0901 327.735 82.7325 324.501 81.3488L322.927 85.0263C326.191 86.423 329.506 87.7934 332.865 89.1317L334.346 85.4157ZM314.761 77.0367C311.487 75.5385 308.275 74.0185 305.13 72.4836L303.375 76.0782C306.55 77.6275 309.792 79.1617 313.096 80.6738L314.761 77.0367ZM295.617 67.6907C292.4 66.0184 289.269 64.3372 286.232 62.6556L284.294 66.155C287.362 67.8536 290.524 69.5514 293.772 71.2398L295.617 67.6907ZM276.995 57.3727C273.838 55.5068 270.809 53.6518 267.919 51.8198L265.777 55.1981C268.703 57.0531 271.768 58.9298 274.96 60.8162L276.995 57.3727ZM259.044 45.9702C255.947 43.8431 253.07 41.7688 250.433 39.7683L248.016 42.955C250.707 44.9971 253.635 47.1081 256.78 49.2676L259.044 45.9702ZM242.246 33.1291C240.837 31.8927 239.554 30.7057 238.404 29.5749L235.599 32.4273C236.811 33.6184 238.15 34.8571 239.609 36.1365L242.246 33.1291ZM238.404 29.5749C237.144 28.3365 235.846 27.1455 234.511 26.0007L231.907 29.0368C233.174 30.1236 234.405 31.2533 235.599 32.4273L238.404 29.5749ZM226.081 19.6748C223.166 17.7631 220.125 16.0224 216.972 14.4417L215.179 18.0173C218.201 19.5327 221.108 21.1971 223.888 23.0197L226.081 19.6748ZM207.369 10.2334C204.14 9.00445 200.821 7.9135 197.427 6.95075L196.335 10.799C199.625 11.7321 202.833 12.787 205.946 13.9718L207.369 10.2334ZM187.284 4.48919C183.918 3.80097 180.494 3.22041 177.024 2.73924L176.474 6.70135C179.866 7.17158 183.206 7.73807 186.482 8.40808L187.284 4.48919ZM166.688 1.60262C163.262 1.31892 159.801 1.1201 156.317 0.998937L156.178 4.99651C159.602 5.11561 162.999 5.31086 166.357 5.58897L166.688 1.60262ZM145.939 0.860064C142.496 0.884481 139.039 0.976279 135.575 1.12876L135.751 5.12488C139.168 4.97445 142.577 4.88401 145.968 4.85995L145.939 0.860064ZM125.239 1.75693C121.798 2.02177 118.359 2.34 114.932 2.70518L115.356 6.68268C118.746 6.3214 122.146 6.00682 125.546 5.74515L125.239 1.75693ZM104.659 3.94037C101.224 4.39906 97.8093 4.89929 94.4256 5.43441L95.0504 9.38532C98.404 8.85495 101.787 8.3594 105.189 7.9052L104.659 3.94037ZM84.2355 7.16316C80.8093 7.78287 77.4257 8.43277 74.0952 9.10546L74.8871 13.0263C78.1924 12.3587 81.5493 11.7139 84.9475 11.0993L84.2355 7.16316ZM63.996 11.2459C60.5579 12.0082 57.1925 12.788 53.9124 13.5763L54.8471 17.4655C58.1056 16.6824 61.448 15.908 64.8619 15.1511L63.996 11.2459ZM43.8927 16.0732C40.4472 16.9619 37.1242 17.8495 33.9413 18.7235L35.0005 22.5807C38.1647 21.7118 41.4676 20.8296 44.8917 19.9465L43.8927 16.0732ZM23.9761 21.5399C20.4172 22.5738 17.1063 23.5652 14.0776 24.4897L15.2454 28.3154C18.2592 27.3954 21.5527 26.4093 25.092 25.3811L23.9761 21.5399Z" fill="#FF7A00"/>
</svg>
